<?xml version="1.0" encoding="utf-8"?>
<!-- Generator: Adobe Illustrator 24.0.0, SVG Export Plug-In . SVG Version: 6.00 Build 0)  -->
<svg version="1.1" id="Слой_1" xmlns="http://www.w3.org/2000/svg" xmlns:xlink="http://www.w3.org/1999/xlink" x="0px" y="0px"
	 viewBox="0 0 2000 2000" style="enable-background:new 0 0 2000 2000;" xml:space="preserve">
<style type="text/css">
	.st0{fill:#0081FF;}
	.st1{fill:#FFFFFF;}
	.st2{fill:none;stroke:#000000;stroke-width:12;stroke-miterlimit:10;}
	.st3{fill:none;stroke:#004777;stroke-width:3;stroke-miterlimit:10;}
	.st4{fill:url(#SVGID_1_);}
	.st5{fill:url(#SVGID_2_);}
	.st6{fill:url(#SVGID_3_);}
	.st7{fill:url(#SVGID_4_);}
	.st8{fill:url(#SVGID_5_);}
	.st9{fill:url(#SVGID_6_);}
	.st10{opacity:7.000000e-02;fill:#0081FF;enable-background:new    ;}
	.st11{fill:#00FF5B;}
</style>
<path class="st0" d="M850.6,1355.5l-274.4-302.7c-24.7-27.2-22.6-69.3,4.6-94l302.8-274.4c27.2-24.7,69.3-22.6,94,4.6L1252,991.7
	c24.7,27.2,22.6,69.3-4.6,94l-302.7,274.4C917.4,1384.8,875.3,1382.7,850.6,1355.5z"/>
<circle class="st1" cx="861" cy="1003.7" r="102.5"/>
<circle class="st1" cx="1122.6" cy="1016.5" r="102.5"/>
<circle cx="815.6" cy="970.6" r="45.5"/>
<circle cx="1077.1" cy="983.4" r="45.5"/>
<path d="M1271.7,869l-264.1-32c-10.6-1.3-18.1-10.9-16.9-21.4l5.8-47.8c1.3-10.6,10.9-18.1,21.4-16.9l264.1,32
	c10.6,1.3,18.1,10.9,16.9,21.4l-5.8,47.8C1291.9,862.8,1282.3,870.2,1271.7,869z"/>
<path d="M939.3,789.2l-254.1,79.1c-10.2,3.1-21-2.5-24.1-12.7l-14.3-46c-3.1-10.2,2.5-21,12.7-24.1l254.1-79.1
	c10.2-3.1,21,2.5,24.1,12.7l14.3,46C955.1,775.2,949.3,786,939.3,789.2z"/>
<path class="st2" d="M1102.7,1112.3c-4.8,5.4-23.2,25.1-52.3,27.8c-31,2.9-61.8-14.5-78.6-44.4"/>
<circle class="st0" cx="1245.6" cy="1275.7" r="53.4"/>
<circle class="st0" cx="444.5" cy="808.5" r="103"/>
<path class="st3" d="M407.2,447.5c2.7-1.6,30-17.9,27.3-45.5c-2.3-22.7-23.3-36.8-27.1-39.2"/>
<path class="st3" d="M416.3,443.5c1.1-1.9,12.8-21.3,36.1-23.4c19.2-1.7,32.5,9.6,34.8,11.6"/>
<linearGradient id="SVGID_1_" gradientUnits="userSpaceOnUse" x1="353.8177" y1="1530.6492" x2="443.5934" y2="1530.6492" gradientTransform="matrix(0.7629 0.6465 0.6465 -0.7629 -898.7761 1378.2861)">
	<stop  offset="0" style="stop-color:#00A3FF"/>
	<stop  offset="0.5" style="stop-color:#0074D3"/>
	<stop  offset="1" style="stop-color:#00A9FF"/>
</linearGradient>
<path class="st4" d="M413.7,484.3c4.8,0.1,9.8-0.6,15-2.1c17-5,31.3-17.7,39.4-33.2c-10.1-10.1-25.8-14.1-42.7-9.2
	c-3.1,0.9-6.2,2.1-9.2,3.5c0.9-3.1,1.6-6.4,2-9.6c2.1-17.5-4.4-32.3-16.1-40.7c-13.9,10.6-24.1,26.8-26.2,44.3
	c-0.6,5.3-0.5,10.4,0.4,15.1c-4.8-0.1-9.8,0.6-15,2.1c-17,5-31.3,17.7-39.4,33.2c10.1,10.1,25.8,14.1,42.7,9.2
	c3.1-0.9,6.2-2.1,9.2-3.5c-0.9,3.1-1.6,6.4-2,9.6c-2.1,17.5,4.4,32.3,16.1,40.7c13.9-10.6,24.1-26.8,26.2-44.3
	C414.7,494.1,414.5,489,413.7,484.3z"/>
<linearGradient id="SVGID_2_" gradientUnits="userSpaceOnUse" x1="403.4735" y1="1637.2" x2="411.3048" y2="1637.2" gradientTransform="matrix(1 0 0 -1 0 2000)">
	<stop  offset="0" style="stop-color:#00A3FF"/>
	<stop  offset="0.5" style="stop-color:#0074D3"/>
	<stop  offset="1" style="stop-color:#00A9FF"/>
</linearGradient>
<circle class="st5" cx="407.4" cy="362.8" r="3.9"/>
<linearGradient id="SVGID_3_" gradientUnits="userSpaceOnUse" x1="480.6879" y1="1569.3" x2="492.0879" y2="1569.3" gradientTransform="matrix(1 0 0 -1 0 2000)">
	<stop  offset="0" style="stop-color:#00A3FF"/>
	<stop  offset="0.5" style="stop-color:#0074D3"/>
	<stop  offset="1" style="stop-color:#00A9FF"/>
</linearGradient>
<circle class="st6" cx="486.4" cy="430.7" r="5.7"/>
<path class="st3" d="M1519.4,749c-0.7-2-8.3-22.8-27.5-24.6c-15.8-1.5-28.2,11-30.3,13.3"/>
<path class="st3" d="M1518.2,743.1c-1.8-2-19.9-22.1-9.4-39.8c8.6-14.6,30.4-16.9,34.3-17.3"/>
<linearGradient id="SVGID_4_" gradientUnits="userSpaceOnUse" x1="1049.0878" y1="605.754" x2="1111.4923" y2="605.754" gradientTransform="matrix(0.9037 -0.7265 -0.6265 -0.7794 935.2885 2017.0522)">
	<stop  offset="0" style="stop-color:#00A3FF"/>
	<stop  offset="0.5" style="stop-color:#0074D3"/>
	<stop  offset="1" style="stop-color:#00A9FF"/>
</linearGradient>
<path class="st7" d="M1547.5,747.7c1-3.5,1.5-7.3,1.4-11.2c-0.3-12.9-6.9-24.6-16.7-31.9c-9.5,6.6-15.5,17.7-15.2,30.6
	c0.1,2.4,0.3,4.7,0.8,7c-2.1-0.9-4.4-1.7-6.7-2.3c-12.5-3.1-24.7,0.4-33.2,8.3c5,11.2,15,20.1,27.6,23.2c3.8,0.9,7.6,1.3,11.2,1
	c-1,3.5-1.5,7.3-1.4,11.2c0.3,12.9,6.9,24.6,16.7,31.9c9.5-6.6,15.5-17.7,15.2-30.6c-0.1-2.4-0.3-4.7-0.8-7c2.1,0.9,4.4,1.7,6.7,2.3
	c12.5,3.1,24.7-0.4,33.2-8.3c-5-11.2-15-20.1-27.6-23.2C1554.9,747.8,1551.1,747.5,1547.5,747.7z"/>
<linearGradient id="SVGID_5_" gradientUnits="userSpaceOnUse" x1="322.9528" y1="458.8693" x2="328.3962" y2="458.8693" gradientTransform="matrix(0.1895 -0.9819 -0.9819 -0.1895 1850.463 1144.3597)">
	<stop  offset="0" style="stop-color:#00A3FF"/>
	<stop  offset="0.5" style="stop-color:#0074D3"/>
	<stop  offset="1" style="stop-color:#00A9FF"/>
</linearGradient>
<circle class="st8" cx="1461.6" cy="737.7" r="2.7"/>
<linearGradient id="SVGID_6_" gradientUnits="userSpaceOnUse" x1="387.8151" y1="389.2334" x2="395.7372" y2="389.2334" gradientTransform="matrix(0.1895 -0.9819 -0.9819 -0.1895 1850.463 1144.3597)">
	<stop  offset="0" style="stop-color:#00A3FF"/>
	<stop  offset="0.5" style="stop-color:#0074D3"/>
	<stop  offset="1" style="stop-color:#00A9FF"/>
</linearGradient>
<circle class="st9" cx="1542.5" cy="686" r="4"/>
<ellipse class="st10" cx="902.3" cy="1475.3" rx="311" ry="42.9"/>
<path class="st11" d="M1525.1,1448c0,0,15.3-39.8-16.3-86.3c-31.7-46.5-44.4-59.7-44.4-59.7s53.6,28.6,76.1,73s14.8,73,14.8,73
	H1525.1z"/>
<path class="st11" d="M1531.3,1448c0,0-20.4-71.4,53.1-118.9c73.5-47.6,90.9-44,90.9-44s-72.5,20.4-102.1,81.4
	c-29.6,61.1-2,81.5-2,81.5H1531.3z"/>
<path class="st11" d="M1553.2,1448c-7.2-10-31.5-46.4-22.5-85.8c2.1-9.1,5.6-16.7,7.5-20.6c13.1-26.4,34.6-40.3,45.6-46.3
	c-5,3.2-11.7,8.2-18.2,15.7c-26.7,30.7-21.6,70.7-20.8,76.4c4.8,33.6,25.7,54.3,32.5,60.6C1569.3,1448,1561.2,1448,1553.2,1448z"/>
<path class="st11" d="M642.5,1380.6c0,0-9.7-25.2,10.3-54.6s28.1-37.8,28.1-37.8s-33.9,18.1-48.1,46.2c-14.2,28.1-9.4,46.2-9.4,46.2
	L642.5,1380.6L642.5,1380.6z"/>
<path class="st11" d="M638.6,1380.6c0,0,12.9-45.1-33.6-75.2s-57.5-27.8-57.5-27.8s45.8,12.9,64.6,51.5c18.7,38.6,1.3,51.5,1.3,51.5
	H638.6z"/>
<path class="st11" d="M624.8,1380.6c4.5-6.3,19.9-29.4,14.2-54.2c-1.3-5.7-3.5-10.6-4.7-13c-8.3-16.7-21.9-25.5-28.8-29.3
	c3.2,2,7.4,5.2,11.5,9.9c16.9,19.4,13.7,44.7,13.1,48.3c-3.1,21.3-16.2,34.3-20.6,38.3C614.6,1380.6,619.7,1380.6,624.8,1380.6z"/>
</svg>
