<svg id="Слой_1" data-name="Слой 1" xmlns="http://www.w3.org/2000/svg" xmlns:xlink="http://www.w3.org/1999/xlink" viewBox="0 0 517 460"><defs><style>.cls-1{fill:#0081ff;}.cls-2{fill:#fff;}.cls-3{fill:none;stroke:#000;stroke-miterlimit:10;stroke-width:5px;}.cls-4{fill:#ccc;}.cls-5,.cls-6,.cls-7{opacity:0.1;}.cls-5{fill:url(#Безымянный_градиент_7);}.cls-6{fill:url(#Безымянный_градиент_7-2);}.cls-7{fill:url(#Безымянный_градиент_7-3);}</style><radialGradient id="Безымянный_градиент_7" cx="395" cy="92.5" r="84" gradientUnits="userSpaceOnUse"><stop offset="0" stop-color="#fff" stop-opacity="0"/><stop offset="0.02" stop-color="#f4faff" stop-opacity="0.04"/><stop offset="0.14" stop-color="#bcdeff" stop-opacity="0.26"/><stop offset="0.25" stop-color="#8ac5ff" stop-opacity="0.46"/><stop offset="0.37" stop-color="#5fb0ff" stop-opacity="0.63"/><stop offset="0.49" stop-color="#3d9fff" stop-opacity="0.76"/><stop offset="0.61" stop-color="#2292ff" stop-opacity="0.87"/><stop offset="0.74" stop-color="#0f88ff" stop-opacity="0.94"/><stop offset="0.87" stop-color="#0483ff" stop-opacity="0.99"/><stop offset="1" stop-color="#0081ff"/></radialGradient><radialGradient id="Безымянный_градиент_7-2" cy="92.5" r="162" xlink:href="#Безымянный_градиент_7"/><radialGradient id="Безымянный_градиент_7-3" cy="92.5" r="252" xlink:href="#Безымянный_градиент_7"/></defs><title>add-server</title><rect class="cls-1" x="129.64" y="214.97" width="165.93" height="165.93" rx="30.57" transform="translate(219.09 -68.02) rotate(36.53)"/><circle class="cls-2" cx="180.51" cy="296.26" r="31.39"/><circle class="cls-2" cx="259.84" cy="284.44" r="31.39"/><circle cx="192.9" cy="285.73" r="13.95"/><circle cx="272.23" cy="273.91" r="13.95"/><rect x="218.46" y="206.69" width="93.33" height="26.59" rx="8.83" transform="translate(52.64 -51.19) rotate(12.24)"/><rect x="100.32" y="238.03" width="93.33" height="26.59" rx="8.83" transform="translate(-103.08 102.2) rotate(-28.87)"/><path class="cls-3" d="M251.56,318.6c-.44,1.37-2.34,6.44-9.62,10.27-7.74,4.07-18.5,5.11-27.46,2.66"/><circle class="cls-1" cx="117.54" cy="390.46" r="13.95"/><polygon class="cls-4" points="395 86.67 395.67 459.92 422.15 458.93 395 86.67"/><circle class="cls-1" cx="390.89" cy="210.17" r="30.44"/><circle class="cls-4" cx="395" cy="92.5" r="10"/><circle class="cls-5" cx="395" cy="92.5" r="84"/><circle class="cls-6" cx="395" cy="92.5" r="162"/><circle class="cls-7" cx="395" cy="92.5" r="252"/></svg>