<?xml version="1.0" encoding="utf-8"?>
<!-- Generator: Adobe Illustrator 24.0.0, SVG Export Plug-In . SVG Version: 6.00 Build 0)  -->
<svg version="1.1" id="Слой_1" xmlns="http://www.w3.org/2000/svg" xmlns:xlink="http://www.w3.org/1999/xlink" x="0px" y="0px"
	 viewBox="0 0 2000 2000" style="enable-background:new 0 0 2000 2000;" xml:space="preserve">
<style type="text/css">
	.st0{fill:#0081FF;}
	.st1{fill:#FFFFFF;}
	.st2{fill:none;stroke:#000000;stroke-width:12;stroke-miterlimit:10;}
	.st3{opacity:0.93;}
	.st4{fill:#CCCCCC;}
	.st5{opacity:0.28;fill:url(#SVGID_1_);}
	.st6{fill:#E6E6E6;}
</style>
<g>
	<path class="st0" d="M646.9,1412.1l-274.4-302.7c-24.7-27.2-22.6-69.3,4.6-94L679.9,741c27.2-24.7,69.3-22.6,94,4.6l274.4,302.7
		c24.7,27.2,22.6,69.3-4.6,94l-302.7,274.4C713.7,1441.4,671.6,1439.3,646.9,1412.1z"/>
	<circle class="st1" cx="657.3" cy="1060.3" r="102.5"/>
	<circle class="st1" cx="918.9" cy="1073.1" r="102.5"/>
	<circle cx="707.5" cy="1085.5" r="45.5"/>
	<circle cx="969" cy="1098.3" r="45.5"/>
	<path d="M1094.1,817.6l-263.3,38c-10.6,1.5-20.3-5.8-21.9-16.3l-6.9-47.7c-1.5-10.6,5.8-20.3,16.3-21.9l263.3-38
		c10.6-1.5,20.3,5.8,21.9,16.3l6.9,47.7C1112,806.3,1104.7,816,1094.1,817.6z"/>
	<path d="M718.5,966.3l-261.6-48.7c-10.5-2-17.4-12-15.4-22.5l8.8-47.4c2-10.5,12-17.4,22.5-15.4l261.6,48.7
		c10.5,2,17.4,12,15.4,22.5l-8.8,47.4C739,961.3,728.9,968.2,718.5,966.3z"/>
	<path class="st2" d="M889.3,1137.6c-1.5,7.1-7.8,33.3-31.8,50c-25.5,17.8-60.9,17.9-90.3,0.2"/>
	<circle class="st0" cx="385" cy="1266.4" r="53.4"/>
	<path class="st3" d="M587.5,1015.5c5.1,78.5,70.4,140.6,150.3,140.6c43.5,0,82.7-18.4,110.2-47.9c27.5,29.5,66.7,47.9,110.2,47.9
		c79.8,0,145.1-62.1,150.3-140.6H587.5z"/>
	<path class="st4" d="M1773.5,1343.3h-572l-173.2-90.3c-12.8-6.7-8.1-26.1,6.4-26.1h515.5L1773.5,1343.3z"/>
	<circle class="st0" cx="1207.7" cy="1163.2" r="103"/>
	<linearGradient id="SVGID_1_" gradientUnits="userSpaceOnUse" x1="651.4643" y1="682.2607" x2="1531.4243" y2="1562.2207">
		<stop  offset="9.441341e-02" style="stop-color:#00BDFD;stop-opacity:0"/>
		<stop  offset="0.5397" style="stop-color:#00BDFD"/>
	</linearGradient>
	<polygon class="st5" points="1773.7,978.1 1764.2,1329.5 1223.8,1323.5 238.3,1095.5 1144.4,434.6 	"/>
	<path class="st6" d="M1780,1343.3h-572V979c0-6.1,5-11.1,11.1-11.1h549.8c6.1,0,11.1,5,11.1,11.1V1343.3z"/>
</g>
</svg>
