<svg id="Слой_1" data-name="Слой 1" xmlns="http://www.w3.org/2000/svg" viewBox="0 0 2000 2000"><defs><style>.cls-1{fill:#0081ff;}.cls-2{fill:#fff;}.cls-3{fill:none;stroke:#000;stroke-width:8px;}.cls-3,.cls-4{stroke-miterlimit:10;}.cls-4{fill:#00cfff;stroke:#fff;stroke-width:13px;}</style></defs><title>sad</title><rect class="cls-1" x="754.19" y="723.6" width="515.57" height="515.57" rx="56.52" transform="translate(1013.37 -428.3) rotate(45.94)"/><circle class="cls-2" cx="917.37" cy="957.9" r="97.53"/><circle cx="917.37" cy="957.9" r="45.37"/><circle class="cls-2" cx="1166.46" cy="957.9" r="97.53"/><rect x="1051.95" y="795.93" width="289.99" height="82.62" rx="8.83" transform="translate(393.21 -382.46) rotate(21.64)"/><rect x="733.08" y="801.84" width="289.99" height="82.62" rx="8.83" transform="translate(-110.49 132.76) rotate(-8.14)"/><circle class="cls-1" cx="1485.43" cy="1169.98" r="94.57"/><circle class="cls-1" cx="586.24" cy="1156.58" r="94.57"/><path class="cls-3" d="M949.45,1077.58a544.14,544.14,0,0,1,255.8,0"/><line class="cls-3" x1="949.45" y1="1061.94" x2="949.45" y2="1094.33"/><line class="cls-3" x1="1205.25" y1="1062.5" x2="1205.25" y2="1094.89"/><path class="cls-4" d="M830.76,851.11c-.83,23.77-22.65,57.24-57.23,57.24S717,874.91,716.29,851.11c-.43-14.76,7.57-17.87,28-56,20.88-39,23.14-55.56,31.66-55.41,8.92.16,10.46,18.4,31.06,59.68C824.33,834.06,831.25,837.23,830.76,851.11Z"/><circle cx="1166.46" cy="957.9" r="45.37"/></svg>