<svg id="Слой_1" data-name="Слой 1" xmlns="http://www.w3.org/2000/svg" viewBox="0 0 2000 2000"><defs><style>.cls-1,.cls-5{fill:none;stroke:#000;}.cls-1,.cls-4,.cls-5{stroke-miterlimit:10;}.cls-1{stroke-width:45px;}.cls-2,.cls-4{fill:#318baf;}.cls-3,.cls-8{fill:#fff;}.cls-4{stroke:#fff;stroke-width:11px;}.cls-5{stroke-width:14px;}.cls-6{fill:#ff0049;}.cls-7{opacity:0.12;}.cls-8{font-size:36.56px;font-family:Gilroy-Heavy, Gilroy;font-weight:800;}.cls-9{letter-spacing:0em;}.cls-10{letter-spacing:-0.02em;}</style></defs><title>security-with-deny-sign</title><line class="cls-1" x1="850.86" y1="1592.08" x2="421.98" y2="673.58"/><rect class="cls-2" x="849.83" y="755.33" width="515.38" height="524.24" rx="30.57" transform="translate(90.07 2124.97) rotate(-90)"/><path class="cls-3" d="M1310.78,1172.44l-1.7,0a102.76,102.76,0,0,1,1.64-205.51l1.71,0a102.76,102.76,0,0,1-1.65,205.51Z"/><path class="cls-2" d="M1310.72,980.91h1.48a88.77,88.77,0,0,1-1.42,177.52l-1.48,0a88.76,88.76,0,0,1,1.42-177.51m0-28h0a116.76,116.76,0,0,0-1.87,233.51l1.93,0a116.76,116.76,0,0,0,1.88-233.51l-1.94,0Z"/><circle cx="1311.47" cy="1071" r="39.45"/><rect x="1179.6" y="962.12" width="263.93" height="75.19" rx="8.83" transform="translate(-253.77 480.71) rotate(-18.97)"/><circle class="cls-4" cx="1585.93" cy="1187.51" r="86.07"/><circle class="cls-4" cx="681.98" cy="1236.24" r="205.28"/><path class="cls-5" d="M1110.86,1176.41a63.36,63.36,0,0,1,31.75-35.25c23.56-11.44,54-8.65,77.83,7"/><circle class="cls-6" cx="393.48" cy="596.72" r="321.05"/><rect class="cls-3" x="188.06" y="538.15" width="408.69" height="116.43" rx="8.83" transform="translate(-211.16 215.13) rotate(-24.38)"/><polygon class="cls-7" points="981.16 1141.14 997.22 1237.65 1022.2 1137.7 981.16 1141.14"/><circle class="cls-3" cx="1003.99" cy="1065.97" r="88.76"/><circle cx="1004.71" cy="1067.29" r="39.45"/><rect x="841.01" y="962.12" width="263.93" height="75.19" rx="8.83" transform="translate(134.94 -115.54) rotate(7.3)"/><rect x="1196.41" y="1194.92" width="257.8" height="56.88" rx="2.95" transform="translate(-71.15 81.89) rotate(-3.45)"/><text class="cls-8" transform="translate(1241.66 1241.54) rotate(-3.45)"><tspan class="cls-9">SE</tspan><tspan class="cls-10" x="40.76" y="0">C</tspan><tspan x="66.46" y="0">URITY</tspan></text></svg>