<?xml version="1.0" encoding="utf-8"?>
<!-- Generator: Adobe Illustrator 24.0.0, SVG Export Plug-In . SVG Version: 6.00 Build 0)  -->
<svg version="1.1" id="Слой_1" xmlns="http://www.w3.org/2000/svg" xmlns:xlink="http://www.w3.org/1999/xlink" x="0px" y="0px"
	 viewBox="0 0 2000 2000" style="enable-background:new 0 0 2000 2000;" xml:space="preserve">
<style type="text/css">
	.st0{fill:#0081FF;}
	.st1{fill:#FFFFFF;}
	.st2{fill:none;stroke:#000000;stroke-width:12;stroke-miterlimit:10;}
	.st3{opacity:7.000000e-02;fill:#0081FF;enable-background:new    ;}
	.st4{fill:#0075FF;}
	.st5{fill:none;stroke:#0075FF;stroke-width:9;stroke-miterlimit:10;}
</style>
<path class="st0" d="M850.6,1355.5l-274.4-302.7c-24.7-27.2-22.6-69.3,4.6-94l302.8-274.4c27.2-24.7,69.3-22.6,94,4.6L1252,991.7
	c24.7,27.2,22.6,69.3-4.6,94l-302.7,274.4C917.4,1384.8,875.3,1382.7,850.6,1355.5z"/>
<circle class="st1" cx="861" cy="1003.7" r="102.5"/>
<circle class="st1" cx="1122.6" cy="1016.5" r="102.5"/>
<circle cx="906.5" cy="970.6" r="45.5"/>
<circle cx="1168" cy="983.4" r="45.5"/>
<path d="M1310.8,856.4l-258.7-62.1c-10.4-2.5-16.7-12.9-14.3-23.2l11.2-46.8c2.5-10.4,12.9-16.7,23.2-14.3l258.7,62.1
	c10.4,2.5,16.7,12.9,14.3,23.2l-11.2,46.8C1331.6,852.5,1321.2,858.8,1310.8,856.4z"/>
<path d="M884.7,805.6l-254.1,79.1c-10.2,3.1-21-2.5-24.1-12.7l-14.3-46c-3.1-10.2,2.5-21,12.7-24.1L859,722.8
	c10.2-3.1,21,2.5,24.1,12.7l14.3,46C900.5,791.6,894.7,802.4,884.7,805.6z"/>
<path class="st2" d="M1102.7,1112.3c-4.8,5.4-23.2,25.1-52.3,27.8c-31,2.9-61.8-14.5-78.6-44.4"/>
<g>
	<circle class="st0" cx="598.6" cy="1173.5" r="91.3"/>
	<path class="st1" d="M598.6,1085.6c48.6,0,87.9,39.3,87.9,87.9c0,48.6-39.3,87.9-87.9,87.9c-48.6,0-87.9-39.3-87.9-87.9
		C510.7,1125,550.1,1085.6,598.6,1085.6 M598.6,1078.8c-25.3,0-49.1,9.8-67,27.7c-17.9,17.9-27.7,41.6-27.7,67s9.8,49.1,27.7,67
		c17.9,17.9,41.6,27.7,67,27.7c25.3,0,49.1-9.8,67-27.7c17.9-17.9,27.7-41.6,27.7-67s-9.8-49.1-27.7-67
		C647.7,1088.6,623.9,1078.8,598.6,1078.8L598.6,1078.8z"/>
</g>
<g>
	<circle class="st0" cx="1553.2" cy="737.9" r="107"/>
	<path class="st1" d="M1553.2,634.9c56.9,0,103,46.1,103,103s-46.1,103-103,103s-103-46.1-103-103S1496.3,634.9,1553.2,634.9
		 M1553.2,626.9c-29.6,0-57.5,11.5-78.5,32.5s-32.5,48.8-32.5,78.5s11.5,57.5,32.5,78.5s48.8,32.5,78.5,32.5s57.5-11.5,78.5-32.5
		s32.5-48.8,32.5-78.5s-11.5-57.5-32.5-78.5C1610.8,638.5,1582.9,626.9,1553.2,626.9L1553.2,626.9z"/>
</g>
<ellipse class="st3" cx="902.3" cy="1475.3" rx="311" ry="42.9"/>
<g>
	<line class="st4" x1="1715.2" y1="632.1" x2="1868.7" y2="524.1"/>
	<g>
		<line class="st5" x1="1715.2" y1="632.1" x2="1824.7" y2="555"/>
		<g>
			<polygon class="st4" points="1823.2,596.8 1815.7,561.4 1784.9,542.3 1868.7,524.1 			"/>
		</g>
	</g>
</g>
</svg>
