<?xml version="1.0" encoding="utf-8"?>
<!-- Generator: Adobe Illustrator 24.0.0, SVG Export Plug-In . SVG Version: 6.00 Build 0)  -->
<svg version="1.1" id="Слой_1" xmlns="http://www.w3.org/2000/svg" xmlns:xlink="http://www.w3.org/1999/xlink" x="0px" y="0px"
	 viewBox="0 0 17 17" style="enable-background:new 0 0 17 17;" xml:space="preserve">
<title>Безымянный-2</title>
<path d="M8.5,5.6c-0.8,0-1.6,0.3-2.1,0.9C5.8,7,5.4,7.8,5.5,8.6c0,0.8,0.3,1.6,0.9,2.2c0.6,0.6,1.3,0.9,2.1,0.9
	c0.4,0,0.9-0.1,1.3-0.3L8.2,9.8l1-0.9l1.4,1.5c0.1,0.1,0.2,0.1,0.3,0c0,0,0,0,0,0c0.3-0.5,0.5-1.1,0.5-1.7c0-0.8-0.3-1.6-0.9-2.2
	C10.1,5.9,9.3,5.6,8.5,5.6z"/>
<path d="M14.4,0H2.6C1.2,0,0,1.2,0,2.6v11.8C0,15.8,1.2,17,2.6,17h11.8c1.4,0,2.6-1.2,2.6-2.6V2.6C17,1.2,15.8,0,14.4,0z M12.7,12.5
	l-1,0.9l-0.8-0.8c-0.1-0.1-0.2-0.1-0.3,0c-0.7,0.4-1.4,0.5-2.1,0.5c-1.2,0-2.3-0.4-3.1-1.3C4.5,11,4,9.8,4.1,8.6
	c0-1.2,0.4-2.3,1.3-3.1c0.8-0.8,1.8-1.3,2.9-1.3c1.3,0,2.5,0.4,3.4,1.3c0.8,0.8,1.3,1.9,1.2,3.1c0,1.1-0.4,2.1-1.1,2.9L12.7,12.5z"
	/>
</svg>
