<?xml version="1.0" encoding="utf-8"?>
<!-- Generator: Adobe Illustrator 24.0.0, SVG Export Plug-In . SVG Version: 6.00 Build 0)  -->
<svg version="1.1" id="Слой_1" xmlns="http://www.w3.org/2000/svg" xmlns:xlink="http://www.w3.org/1999/xlink" x="0px" y="0px"
	 viewBox="0 0 17 17" style="enable-background:new 0 0 17 17;" xml:space="preserve">
<title>Безымянный-2</title>
<path d="M15.9,5.4h-12c-0.6,0-1.1,0.5-1.1,1.1v1c0,0.6,0.5,1.1,1.1,1.1h11.3l1.8,1.5V6.5C17,5.9,16.5,5.4,15.9,5.4
	C15.9,5.4,15.9,5.4,15.9,5.4z"/>
<path d="M13.1,0h-12C0.5,0,0,0.5,0,1.1c0,0,0,0,0,0v4l1.7-1.5h11.4c0.6,0,1.1-0.5,1.1-1.1c0,0,0,0,0,0V1.1C14.2,0.5,13.7,0,13.1,0
	C13.1,0,13.1,0,13.1,0z"/>
<path d="M13.1,11.1h-12c-0.6,0-1.1,0.5-1.1,1.1v4l1.7-1.7h11.4c0.6,0,1.1-0.5,1.1-1.1v0v-1.2C14.2,11.5,13.7,11.1,13.1,11.1z"/>
</svg>
