<?xml version="1.0" encoding="utf-8"?>
<!-- Generator: Adobe Illustrator 24.0.0, SVG Export Plug-In . SVG Version: 6.00 Build 0)  -->
<svg version="1.1" id="Слой_1" xmlns="http://www.w3.org/2000/svg" xmlns:xlink="http://www.w3.org/1999/xlink" x="0px" y="0px"
	 viewBox="0 0 19 19" style="enable-background:new 0 0 19 19;" xml:space="preserve">
<title>Безымянный-2</title>
<path d="M1.1,4.8h16.8c0.6,0,1.1,0.5,1.1,1.1v12.1c0,0.6-0.5,1.1-1.1,1.1H1.1C0.5,19,0,18.5,0,17.9V5.9C0,5.3,0.5,4.8,1.1,4.8z"/>
<path d="M1.1,0h16.8C18.5,0,19,0.5,19,1.1v0.4c0,0.6-0.5,1.1-1.1,1.1H1.1C0.5,2.6,0,2.1,0,1.5V1.1C0,0.5,0.5,0,1.1,0z"/>
</svg>
