<?xml version="1.0" encoding="utf-8"?>
<!-- Generator: Adobe Illustrator 24.0.0, SVG Export Plug-In . SVG Version: 6.00 Build 0)  -->
<svg version="1.1" id="Слой_1" xmlns="http://www.w3.org/2000/svg" xmlns:xlink="http://www.w3.org/1999/xlink" x="0px" y="0px"
	 viewBox="0 0 19 19" style="enable-background:new 0 0 19 19;" xml:space="preserve">
<title>Безымянный-2</title>
<g>
	<path d="M11.3,5.6h3.4l-4.4-4.4v3.4C10.4,5.2,10.8,5.6,11.3,5.6z"/>
	<path d="M11.3,6.1c-0.8,0-1.4-0.6-1.4-1.4V0.2C9.8,0.1,9.6,0.1,9.5,0.1H3.8c-0.4,0-0.8,0.3-0.8,0.8v17.4c0,0.4,0.3,0.8,0.8,0.8
		h11.3c0.4,0,0.8-0.3,0.8-0.8V6.5c0-0.1,0-0.3-0.1-0.4H11.3z M7.7,13.4l-0.4,0.4l-2.5-2.5l2.6-2.6L7.8,9l-2.2,2.2L7.7,13.4z
		 M8.7,13.6l-0.5-0.2L10,8.7l0.5,0.2L8.7,13.6z M11.6,13.7l-0.4-0.4l2.1-2.1L11.1,9l0.4-0.4l2.6,2.6L11.6,13.7z"/>
</g>
</svg>
