<?xml version="1.0" encoding="utf-8"?>
<!-- Generator: Adobe Illustrator 24.0.0, SVG Export Plug-In . SVG Version: 6.00 Build 0)  -->
<svg version="1.1" id="Слой_1" xmlns="http://www.w3.org/2000/svg" xmlns:xlink="http://www.w3.org/1999/xlink" x="0px" y="0px"
	 viewBox="0 0 19 19" style="enable-background:new 0 0 19 19;" xml:space="preserve">
<title>Безымянный-2</title>
<path d="M16.4,8.2L16.4,8.2l-0.7,0V5.4c0-1.1-0.9-2.1-2-2.1h-3.2V2.5h0c0-1.3-1.1-2.3-2.3-2.3s-2.3,1-2.3,2.3h0v0.8h-3
	c-1.1,0-2,0.9-2,2.1v10.4c0,1.1,0.9,2.1,2,2.1h3v-0.7h0c0-1.3,1.1-2.3,2.3-2.3s2.3,1,2.3,2.3h0v0.7h3.2c1.1,0,2-0.9,2-2.1v-2.9h0.7
	v0c1.3,0,2.3-1.1,2.3-2.3S17.7,8.2,16.4,8.2z"/>
</svg>
