<?xml version="1.0" encoding="utf-8"?>
<!-- Generator: Adobe Illustrator 24.0.0, SVG Export Plug-In . SVG Version: 6.00 Build 0)  -->
<svg version="1.1" id="Слой_1" xmlns="http://www.w3.org/2000/svg" xmlns:xlink="http://www.w3.org/1999/xlink" x="0px" y="0px"
	 viewBox="0 0 19 19" style="enable-background:new 0 0 19 19;" xml:space="preserve">
<title>Безымянный-2</title>
<path d="M1.1,0h16.8C18.5,0,19,0.5,19,1.1v1.8C19,3.5,18.5,4,17.9,4H1.1C0.5,4,0,3.5,0,2.9V1.1C0,0.5,0.5,0,1.1,0z"/>
<path d="M1.1,7.5h16.8C18.5,7.5,19,8,19,8.6v1.8c0,0.6-0.5,1.1-1.1,1.1H1.1C0.5,11.5,0,11,0,10.4V8.6C0,8,0.5,7.5,1.1,7.5z"/>
<path d="M1.1,15.1h16.8c0.6,0,1.1,0.5,1.1,1.1v1.8c0,0.6-0.5,1.1-1.1,1.1H1.1C0.5,19,0,18.5,0,17.9v-1.8C0,15.5,0.5,15.1,1.1,15.1z"
	/>
</svg>
