<?xml version="1.0" encoding="utf-8"?>
<!-- Generator: Adobe Illustrator 24.0.0, SVG Export Plug-In . SVG Version: 6.00 Build 0)  -->
<svg version="1.1" id="Слой_1" xmlns="http://www.w3.org/2000/svg" xmlns:xlink="http://www.w3.org/1999/xlink" x="0px" y="0px"
	 viewBox="0 0 17 17" style="enable-background:new 0 0 17 17;" xml:space="preserve">
<title>Безымянный-2</title>
<path d="M16.7,7.5L13.5,2c-0.4-0.7-1.1-1.1-1.8-1.1H5.3C4.5,0.9,3.8,1.3,3.5,2L0.3,7.5c-0.4,0.7-0.4,1.5,0,2.1l3.2,5.5
	c0.4,0.7,1.1,1.1,1.8,1.1h6.4c0.8,0,1.5-0.4,1.8-1.1l3.2-5.5C17.1,8.9,17.1,8.1,16.7,7.5z M8.5,11.8c-1.8,0-3.3-1.5-3.3-3.3
	s1.5-3.3,3.3-3.3s3.3,1.5,3.3,3.3c0,0,0,0,0,0C11.8,10.4,10.3,11.8,8.5,11.8z"/>
</svg>
