<?xml version="1.0" encoding="utf-8"?>
<!-- Generator: Adobe Illustrator 24.0.0, SVG Export Plug-In . SVG Version: 6.00 Build 0)  -->
<svg version="1.1" id="Слой_1" xmlns="http://www.w3.org/2000/svg" xmlns:xlink="http://www.w3.org/1999/xlink" x="0px" y="0px"
	 viewBox="0 0 19 19" style="enable-background:new 0 0 19 19;" xml:space="preserve">
<title>Безымянный-2</title>
<path d="M1,0h6c0.6,0,1.1,0.5,1.1,1.1v5.5c0,0.6-0.5,1.1-1.1,1.1H1c-0.6,0-1.1-0.5-1.1-1.1V1.1C-0.1,0.5,0.4,0,1,0z"/>
<path d="M12,0h6C18.5,0,19,0.5,19,1.1v5.5c0,0.6-0.5,1.1-1.1,1.1h-6c-0.6,0-1.1-0.5-1.1-1.1V1.1C10.9,0.5,11.3,0,12,0z"/>
<path d="M1,11.4h6c0.6,0,1.1,0.5,1.1,1.1v5.5C8.1,18.5,7.6,19,7,19H1c-0.6,0-1.1-0.5-1.1-1.1v-5.5C-0.1,11.9,0.4,11.4,1,11.4z"/>
<path d="M12,11.4h6c0.6,0,1.1,0.5,1.1,1.1v5.5c0,0.6-0.5,1.1-1.1,1.1h-6c-0.6,0-1.1-0.5-1.1-1.1v-5.5C10.9,11.9,11.3,11.4,12,11.4z"
	/>
</svg>
