<!-- Generator: Adobe Illustrator 24.0.0, SVG Export Plug-In  -->
<svg version="1.1" xmlns="http://www.w3.org/2000/svg" xmlns:xlink="http://www.w3.org/1999/xlink" x="0px" y="0px" width="33.2px"
     height="22.2px" viewBox="0 0 33.2 22.2" style="enable-background:new 0 0 33.2 22.2;" xml:space="preserve">
<style type="text/css">
	.st0{fill:#0081FF;}
	.st1{fill:#FFFFFF;}
	.st2{fill:none;stroke:#000000;stroke-width:0.5;stroke-miterlimit:10;}
</style>
    <defs>
</defs>
    <g>
	<path class="st0" d="M13.7,21.5l-8.7-9C4.1,11.6,4.1,10.2,5,9.3l9-8.7c0.9-0.9,2.3-0.8,3.2,0.1l8.7,9c0.9,0.9,0.8,2.3-0.1,3.2
		l-9,8.7C15.9,22.4,14.5,22.4,13.7,21.5z"/>
        <circle class="st1" cx="12.2" cy="10.4" r="3.2"/>
        <circle class="st1" cx="20.4" cy="10.5" r="3.2"/>
        <circle cx="12.4" cy="10.5" r="1.4"/>
        <circle cx="20.6" cy="10.6" r="1.4"/>
        <path d="M25.4,6.9l-7.8-3.1c-0.3-0.1-0.4-0.5-0.3-0.8l0.6-1.4c0.1-0.3,0.5-0.4,0.8-0.3l7.8,3.1c0.3,0.1,0.4,0.5,0.3,0.8l-0.6,1.4
		C26.1,6.9,25.7,7,25.4,6.9z"/>
        <path d="M14,5.2L6,8c-0.3,0.1-0.6,0-0.7-0.3L4.8,6.1c-0.1-0.3,0-0.6,0.3-0.7l8-2.8c0.3-0.1,0.6,0,0.7,0.3l0.5,1.5
		C14.4,4.7,14.3,5.1,14,5.2z"/>
        <path class="st2" d="M15.1,14.5c0.2,0.1,1.1,0.7,2,0.5c1-0.2,1.8-1,1.9-2.1"/>
        <circle class="st0" cx="30.1" cy="14.9" r="3.1"/>
        <circle class="st0" cx="1.4" cy="12" r="1.4"/>
</g>
</svg>
